# xmcd CD database file
#
# Track frame offsets:
#	150
#	11673
#	21404
#	32153
#	42789
#	51710
#	60759
#	68328
#	77409
#	89252
#	99873
#	108972
#	116594
#	125036
#	134802
#	142849
#	157990
#	166871
#	178129
#
# Disc length: 2487 seconds
#
# Revision: 0
# Processed by: cddbd v1.5.2PL0 Copyright (c) Steve Scherf et al.
# Submitted via: CDex 1.51
#
DISCID=f309b513
DTITLE=Julie London - The Very Best Of Julie London [CD2]
DYEAR=2006
DGENRE=Jazz
TTITLE0=Lonely Girl
TTITLE1=June In January
TTITLE2=February Brings The Rain
TTITLE3=Melancholy March
TTITLE4=What'll I Do
TTITLE5=I'll Remember April
TTITLE6=People Who Are Born In May
TTITLE7=Memphis In June
TTITLE8=It's The Talk Of The Town
TTITLE9=Sleigh Ride In July
TTITLE10=Time For August
TTITLE11=September In The Rain
TTITLE12=All Alone
TTITLE13=Fools Rush In
TTITLE14=This October
TTITLE15=November Twilight
TTITLE16=Warm December
TTITLE17=The Thirteenth Month
TTITLE18=When Your Lover Is Gone
EXTD=YEAR: 2006
EXTT0=
EXTT1=
EXTT2=
EXTT3=
EXTT4=
EXTT5=
EXTT6=
EXTT7=
EXTT8=
EXTT9=
EXTT10=
EXTT11=
EXTT12=
EXTT13=
EXTT14=
EXTT15=
EXTT16=
EXTT17=
EXTT18=
PLAYORDER=
